<svg width="21" height="20" viewBox="0 0 21 20" fill="none" xmlns="http://www.w3.org/2000/svg">
<path fill-rule="evenodd" clip-rule="evenodd" d="M15.3025 15.877C15.396 15.9617 15.5126 16 15.6253 16L15.6294 15.9935C15.762 15.9935 15.8946 15.9384 15.9913 15.8322L20.8363 10.3935C20.9977 10.2129 20.9977 9.93812 20.8395 9.75438L15.9945 4.16721C15.8163 3.9635 15.5136 3.94432 15.3098 4.11848C15.1093 4.29662 15.087 4.5994 15.2611 4.80311L19.3378 9.50781H0.984113C0.716493 9.50781 0.5 9.72431 0.5 9.99192C0.5 10.2595 0.716493 10.476 0.984113 10.476H19.4634L15.2642 15.1923C15.086 15.3929 15.102 15.6996 15.3025 15.877Z" fill="#000000"/>
</svg>
