<svg width="73" height="28" viewBox="0 0 73 28" fill="none" xmlns="http://www.w3.org/2000/svg">
<g clip-path="url(#clip0_382_678)">
<path d="M24.0738 3.43384V10.3273C24.0738 12.4703 23.1037 13.6966 20.9209 13.6966H17.9979C17.7681 13.6966 17.5767 13.503 17.5767 13.2706V0.490547C17.5767 0.258182 17.7681 0.0645447 17.9979 0.0645447H20.9209C23.0271 0.0645447 24.0738 1.20055 24.0738 3.43384ZM21.9549 3.33057C21.9549 2.54311 21.6996 2.00092 20.8827 2.00092H19.8998C19.7849 2.00092 19.6828 2.09129 19.6828 2.22038V11.5279C19.6828 11.6441 19.7721 11.7473 19.8998 11.7473H20.8827C21.7123 11.7473 21.9549 11.2052 21.9549 10.4177V3.33057Z" fill="#E94D25"/>
<path d="M30.0221 0.0645447C30.2264 0.0645447 30.4051 0.219455 30.4434 0.426002L32.4602 13.2061C32.4857 13.3352 32.4474 13.4514 32.358 13.5546C32.2815 13.645 32.1666 13.7095 32.0389 13.7095H30.7625C30.5583 13.7095 30.3795 13.5546 30.3413 13.3481L30.0604 11.4246C30.0477 11.3213 29.9583 11.2439 29.8562 11.2439H27.6224C27.5203 11.2439 27.431 11.3213 27.4182 11.4246L27.1374 13.3481C27.1118 13.5546 26.9331 13.7095 26.7161 13.7095H25.6312C25.5035 13.7095 25.3886 13.6579 25.3121 13.5546C25.2355 13.4643 25.1972 13.3352 25.2099 13.2061L27.2267 0.426002C27.265 0.219455 27.431 0.0645447 27.648 0.0645447H30.0221ZM29.4988 9.37206C29.5626 9.37206 29.6137 9.34624 29.6647 9.2946C29.703 9.24297 29.7286 9.19133 29.7158 9.12679L28.8095 3.04656C28.8095 3.00784 28.7712 2.96911 28.7202 2.96911C28.6819 2.96911 28.6436 2.99493 28.6308 3.04656L27.7245 9.12679C27.7118 9.19133 27.7373 9.25588 27.7756 9.2946C27.8139 9.34624 27.8777 9.37206 27.9415 9.37206H29.4988Z" fill="#E94D25"/>
<path d="M44.1648 0.426003V10.379C44.1648 12.5348 43.1309 13.7999 41.012 13.7999C40.1185 13.7999 39.4292 13.5675 38.9186 13.1544C38.408 13.5805 37.706 13.7999 36.8125 13.7999C34.6681 13.7999 33.6597 12.5219 33.6597 10.379V0.426003C33.6597 0.193638 33.8511 0 34.0809 0H35.3573C35.5871 0 35.7786 0.193638 35.7786 0.426003V10.5081C35.7786 11.3213 36.0594 11.8377 36.8763 11.8377C37.6932 11.8377 37.9741 11.3213 37.9741 10.5081V0.426003C37.9741 0.193638 38.1655 0 38.3953 0H39.5569C39.7866 0 39.9781 0.193638 39.9781 0.426003V10.5081C39.9781 11.3213 40.2589 11.8377 41.0758 11.8377C41.8927 11.8377 42.1736 11.3213 42.1736 10.5081V0.426003C42.1736 0.193638 42.365 0 42.5948 0H43.7564C43.9734 0 44.1648 0.193638 44.1648 0.426003Z" fill="#E94D25"/>
<path d="M45.9775 0.490547C45.9775 0.258182 46.169 0.0645447 46.3988 0.0645447H47.6752C47.905 0.0645447 48.0964 0.258182 48.0964 0.490547V13.2577C48.0964 13.4901 47.905 13.6837 47.6752 13.6837H46.3988C46.169 13.6837 45.9775 13.4901 45.9775 13.2577V0.490547Z" fill="#E94D25"/>
<path d="M56.483 3.43384V10.3273C56.483 12.4703 55.5129 13.6966 53.3301 13.6966H50.4071C50.1773 13.6966 49.9858 13.503 49.9858 13.2706V0.490547C49.9858 0.258182 50.1773 0.0645447 50.4071 0.0645447H53.3301C55.4363 0.0645447 56.483 1.20055 56.483 3.43384ZM54.3641 3.33057C54.3641 2.54311 54.1088 2.00092 53.2918 2.00092H52.309C52.1941 2.00092 52.092 2.09129 52.092 2.22038V11.5279C52.092 11.6441 52.1813 11.7473 52.309 11.7473H53.2918C54.1215 11.7473 54.3641 11.2052 54.3641 10.4177V3.33057Z" fill="#E94D25"/>
<path d="M18.9297 21.5196C19.134 21.5196 19.3254 21.5454 19.5041 21.61C19.6828 21.6616 19.8233 21.739 19.9381 21.8294C20.053 21.9198 20.1551 22.023 20.2445 22.1521C20.3211 22.2683 20.3849 22.3974 20.4232 22.5265C20.4615 22.6556 20.4742 22.7847 20.4742 22.9009C20.4742 22.9912 20.4487 23.0687 20.3849 23.1203C20.3211 23.172 20.2445 23.1978 20.1551 23.1978C20.0785 23.1978 20.0147 23.1849 19.9764 23.1461C19.9381 23.1074 19.8871 23.0558 19.8615 22.9783C19.7722 22.7718 19.7084 22.6298 19.6573 22.5394C19.4786 22.2941 19.2489 22.1651 18.9553 22.1651C18.5723 22.1651 18.2787 22.3329 18.0618 22.6556C17.8448 22.9783 17.7426 23.4689 17.7426 24.1014C17.7426 24.7727 17.8703 25.2891 18.1128 25.6247C18.3553 25.9733 18.7 26.1411 19.1467 26.1411C19.2616 26.1411 19.3765 26.1282 19.4914 26.0894C19.6063 26.0507 19.6956 26.0249 19.7977 25.9733C19.8871 25.9216 19.9381 25.9087 19.9637 25.8958C20.0402 25.87 20.1168 25.8571 20.1679 25.8571C20.2572 25.8571 20.3211 25.8829 20.3849 25.9474C20.4359 25.9991 20.4742 26.0765 20.4742 26.154C20.4742 26.2314 20.4615 26.296 20.4232 26.3476C20.3849 26.3993 20.3338 26.438 20.27 26.4896C20.1424 26.58 19.9637 26.6574 19.7467 26.7091C19.5297 26.7607 19.2999 26.7994 19.0829 26.7994C18.4319 26.7994 17.9341 26.5671 17.5639 26.1153C17.2065 25.6634 17.0278 25.0051 17.0278 24.1402C17.0278 23.3011 17.2065 22.6556 17.5512 22.1909C17.8575 21.752 18.3298 21.5196 18.9297 21.5196Z" fill="#010202"/>
<path d="M22.4146 26.0894C22.5039 26.0894 22.5677 26.1153 22.6316 26.1798C22.6954 26.2443 22.7209 26.3218 22.7209 26.4122C22.7209 26.5025 22.6954 26.58 22.6316 26.6445C22.5677 26.7091 22.5039 26.7349 22.4146 26.7349H21.3679C21.2785 26.7349 21.2147 26.7091 21.1509 26.6445C21.0871 26.58 21.0615 26.5025 21.0615 26.4122C21.0615 26.3218 21.0871 26.2443 21.1509 26.1798C21.2147 26.1153 21.2785 26.0894 21.3679 26.0894H21.5338V22.2425H21.3679C21.2785 22.2425 21.2147 22.2167 21.1509 22.1521C21.0871 22.0876 21.0615 22.0101 21.0615 21.9198C21.0615 21.8294 21.0871 21.752 21.1509 21.6874C21.2147 21.6229 21.2785 21.597 21.3679 21.597H22.4146C22.5039 21.597 22.5677 21.6229 22.6316 21.6874C22.6954 21.752 22.7209 21.8294 22.7209 21.9198C22.7209 22.0101 22.6954 22.0876 22.6316 22.1521C22.5677 22.2167 22.5039 22.2425 22.4146 22.2425H22.2486V26.0894H22.4146Z" fill="#010202"/>
<path d="M26.0523 23.9594C26.282 24.0627 26.4607 24.2305 26.5884 24.4371C26.716 24.6565 26.7926 24.9147 26.7926 25.2503C26.7926 25.7151 26.665 26.0765 26.3969 26.3476C26.1289 26.6058 25.7459 26.7349 25.2481 26.7349H23.9717C23.7291 26.7349 23.6143 26.5929 23.6143 26.296V22.036C23.6143 21.894 23.6526 21.7907 23.7291 21.7132C23.8057 21.6358 23.9078 21.597 24.0482 21.597H25.1077C25.58 21.597 25.9374 21.7132 26.1927 21.9456C26.448 22.178 26.5756 22.5007 26.5756 22.9009C26.5628 23.3785 26.3969 23.74 26.0523 23.9594ZM24.9928 22.2167H24.3163V23.8174H25.1971C25.631 23.7916 25.848 23.5334 25.848 23.0558C25.8608 22.4878 25.5672 22.2167 24.9928 22.2167ZM25.3375 26.1282C25.58 26.1282 25.7587 26.0507 25.8863 25.9087C26.014 25.7538 26.0778 25.5473 26.0778 25.2762C26.0778 24.9922 26.014 24.7727 25.8863 24.6178C25.7587 24.4758 25.58 24.3983 25.3502 24.3983H24.3291V26.1282H25.3375Z" fill="#010202"/>
<path d="M29.6008 26.8253C28.9753 26.8253 28.4775 26.5929 28.1201 26.1411C27.7627 25.6763 27.584 25.0309 27.584 24.1789C27.584 23.3269 27.7627 22.6814 28.1201 22.2167C28.4775 21.752 28.9625 21.5325 29.6008 21.5325C30.239 21.5325 30.7368 21.7649 31.0814 22.2167C31.4389 22.6814 31.6176 23.3269 31.6176 24.1789C31.6176 25.0309 31.4389 25.6763 31.0814 26.1411C30.724 26.5929 30.239 26.8253 29.6008 26.8253ZM29.6008 26.1669C30.0092 26.1669 30.3283 25.9862 30.5581 25.6505C30.7751 25.302 30.89 24.8114 30.89 24.1789C30.89 23.5463 30.7751 23.0558 30.5581 22.7072C30.3411 22.3587 30.022 22.178 29.6135 22.178C29.2051 22.178 28.886 22.3587 28.669 22.7072C28.452 23.0558 28.3371 23.5463 28.3371 24.1918C28.3371 24.8243 28.452 25.3149 28.669 25.6634C28.8732 25.9991 29.1923 26.1669 29.6008 26.1669Z" fill="#010202"/>
<path d="M34.783 24.6565L35.5872 26.2831C35.6255 26.3605 35.6383 26.4251 35.6383 26.4896C35.6383 26.58 35.6 26.6574 35.5361 26.722C35.4723 26.7865 35.3957 26.8124 35.3064 26.8124C35.1532 26.8124 35.0383 26.7349 34.9617 26.58L34.0555 24.734H33.3662V26.4767C33.3662 26.5671 33.3279 26.6574 33.2641 26.722C33.2002 26.7865 33.1109 26.8253 33.0088 26.8253C32.9067 26.8253 32.8173 26.7865 32.7535 26.722C32.6897 26.6574 32.6514 26.5671 32.6514 26.4767V22.036C32.6514 21.894 32.6897 21.7907 32.7662 21.7132C32.8428 21.6358 32.945 21.597 33.0854 21.597H34.132C34.6426 21.597 35.0383 21.7261 35.3064 21.9972C35.5744 22.2683 35.7021 22.6427 35.7021 23.1461C35.7021 23.5463 35.6255 23.8691 35.4596 24.1272C35.2936 24.3983 35.0766 24.5662 34.783 24.6565ZM33.3662 22.2554V24.1014H34.0938C34.3746 24.1014 34.5916 24.024 34.7447 23.882C34.8979 23.74 34.9745 23.5076 34.9745 23.1849C34.9745 22.8751 34.8979 22.6427 34.7575 22.4878C34.6171 22.3329 34.3746 22.2554 34.0555 22.2554H33.3662Z" fill="#010202"/>
<path d="M38.5104 26.8253C37.885 26.8253 37.3872 26.5929 37.0298 26.1411C36.6724 25.6763 36.4937 25.0309 36.4937 24.1789C36.4937 23.3269 36.6724 22.6814 37.0298 22.2167C37.3872 21.752 37.8722 21.5325 38.5104 21.5325C39.1487 21.5325 39.6465 21.7649 39.9911 22.2167C40.3485 22.6814 40.5272 23.3269 40.5272 24.1789C40.5272 25.0309 40.3485 25.6763 39.9911 26.1411C39.6465 26.5929 39.1487 26.8253 38.5104 26.8253ZM38.5104 26.1669C38.9189 26.1669 39.238 25.9862 39.4678 25.6505C39.6848 25.302 39.7997 24.8114 39.7997 24.1789C39.7997 23.5463 39.6848 23.0558 39.4678 22.7072C39.2508 22.3587 38.9317 22.178 38.5232 22.178C38.1147 22.178 37.7956 22.3587 37.5786 22.7072C37.3489 23.0558 37.2468 23.5463 37.2468 24.1918C37.2468 24.8243 37.3616 25.3149 37.5786 25.6634C37.7829 25.9991 38.102 26.1669 38.5104 26.1669Z" fill="#010202"/>
<path d="M46.1307 21.5196C46.2328 21.5196 46.3094 21.5583 46.386 21.6229C46.4498 21.6874 46.4881 21.7907 46.4881 21.9069C46.4881 21.9456 46.4753 21.9972 46.4626 22.0618L45.4797 26.3734C45.4159 26.6704 45.2627 26.8124 45.0202 26.8124C44.7904 26.8124 44.65 26.6574 44.5862 26.3605L43.8459 22.9267L43.0928 26.3605C43.0289 26.6704 42.8758 26.8124 42.6588 26.8124C42.5566 26.8124 42.4545 26.7736 42.3779 26.6962C42.2886 26.6187 42.2375 26.5154 42.1992 26.3734L41.2419 22.0876C41.2164 21.9843 41.2036 21.9198 41.2036 21.894C41.2036 21.7778 41.2419 21.6874 41.3057 21.61C41.3696 21.5454 41.4717 21.5067 41.5866 21.5067C41.778 21.5067 41.8929 21.6229 41.944 21.8423L42.6715 25.5989L43.3991 22.0101C43.4374 21.8423 43.4885 21.7132 43.565 21.6358C43.6289 21.5583 43.731 21.5196 43.8459 21.5196C43.9607 21.5196 44.0629 21.5583 44.1267 21.6358C44.1905 21.7132 44.2543 21.8423 44.2799 22.0101L45.0202 25.586L45.7478 21.8681C45.7861 21.6358 45.9137 21.5196 46.1307 21.5196Z" fill="#010202"/>
<path d="M48.6325 26.8253C48.4027 26.8253 48.1729 26.7994 47.9432 26.7478C47.7134 26.6962 47.522 26.6316 47.3815 26.5284C47.305 26.4896 47.2539 26.438 47.2156 26.3864C47.1773 26.3347 47.1646 26.2702 47.1646 26.1927C47.1646 26.0894 47.1901 26.012 47.2411 25.9603C47.2922 25.9087 47.3688 25.87 47.4581 25.87C47.4837 25.87 47.522 25.8829 47.5858 25.8958C47.5985 25.8958 47.6624 25.9345 47.7772 25.9862C47.8921 26.0378 48.0198 26.0765 48.1602 26.1153C48.3006 26.154 48.441 26.1669 48.6069 26.1669C48.9005 26.1669 49.1303 26.1023 49.2835 25.9603C49.4366 25.8183 49.5132 25.6505 49.5132 25.4311C49.5132 25.2503 49.4749 25.0954 49.3856 24.9663C49.2962 24.8372 49.1941 24.7469 49.0537 24.6823C48.926 24.6178 48.7729 24.5532 48.6069 24.5016C48.441 24.45 48.2878 24.3854 48.1219 24.308C47.9559 24.2305 47.8155 24.1531 47.6751 24.0498C47.5475 23.9465 47.4326 23.8045 47.3433 23.6109C47.2539 23.4172 47.2284 23.1849 47.2284 22.9267C47.2284 22.5136 47.356 22.178 47.6241 21.9198C47.8921 21.6616 48.2623 21.5325 48.7346 21.5325C49.2324 21.5325 49.6026 21.6745 49.8579 21.9456C50.011 22.1263 50.0876 22.3071 50.0876 22.4878C50.0876 22.5781 50.0621 22.6556 49.9983 22.7201C49.9472 22.7847 49.8706 22.8105 49.794 22.8105C49.6536 22.8105 49.526 22.746 49.4366 22.604C49.3856 22.5394 49.3473 22.4749 49.3217 22.4361C49.2962 22.3974 49.2452 22.3458 49.1813 22.2941C49.1175 22.2425 49.0409 22.2038 48.9643 22.178C48.8878 22.1521 48.7856 22.1392 48.6835 22.1392C48.4538 22.1392 48.2751 22.2167 48.1346 22.3587C47.9942 22.5007 47.9304 22.6814 47.9304 22.888C47.9304 23.0429 47.9559 23.172 48.007 23.2881C48.0581 23.4043 48.1219 23.4947 48.2112 23.5592C48.3006 23.6238 48.4027 23.6883 48.5176 23.74C48.6325 23.7916 48.7473 23.8432 48.875 23.882C49.0026 23.9207 49.1303 23.9723 49.2579 24.024C49.3856 24.0756 49.5004 24.1402 49.6153 24.2047C49.7302 24.2822 49.8323 24.3596 49.9217 24.4629C50.011 24.5662 50.0748 24.6952 50.1259 24.8502C50.177 25.0051 50.2025 25.1987 50.2025 25.4053C50.2025 25.8442 50.0621 26.1798 49.7813 26.438C49.5004 26.6962 49.1175 26.8253 48.6325 26.8253Z" fill="#010202"/>
<path d="M54.2361 26.2702C54.2872 26.3605 54.3127 26.438 54.3127 26.5154C54.3127 26.6058 54.2744 26.6833 54.2106 26.7478C54.1468 26.8124 54.0702 26.8382 53.9808 26.8382C53.8277 26.8382 53.7 26.7607 53.6107 26.6058L52.4363 24.5791H51.9257V26.5025C51.9257 26.6058 51.8875 26.6833 51.8236 26.7478C51.7598 26.8124 51.6705 26.8511 51.5683 26.8511C51.4662 26.8511 51.3769 26.8124 51.3131 26.7478C51.2492 26.6833 51.2109 26.6058 51.2109 26.5025V21.894C51.2109 21.7907 51.2492 21.7132 51.3131 21.6487C51.3769 21.5841 51.4662 21.5454 51.5683 21.5454C51.6705 21.5454 51.7598 21.5841 51.8236 21.6487C51.8875 21.7132 51.9257 21.7907 51.9257 21.894V23.8949H52.4363L53.5596 21.7778C53.6362 21.6229 53.7638 21.5454 53.917 21.5454C54.0064 21.5454 54.0957 21.5712 54.1595 21.6358C54.2234 21.7003 54.2616 21.7778 54.2616 21.8681C54.2616 21.9327 54.2361 22.0101 54.1851 22.1134L52.9724 24.2047L54.2361 26.2702Z" fill="#010202"/>
<path d="M56.1895 26.0894C56.2788 26.0894 56.3426 26.1153 56.4065 26.1798C56.4703 26.2443 56.4958 26.3218 56.4958 26.4122C56.4958 26.5025 56.4703 26.58 56.4065 26.6445C56.3426 26.7091 56.2788 26.7349 56.1895 26.7349H55.1428C55.0534 26.7349 54.9896 26.7091 54.9258 26.6445C54.862 26.58 54.8364 26.5025 54.8364 26.4122C54.8364 26.3218 54.862 26.2443 54.9258 26.1798C54.9896 26.1153 55.0534 26.0894 55.1428 26.0894H55.3087V22.2425H55.1428C55.0534 22.2425 54.9896 22.2167 54.9258 22.1521C54.862 22.0876 54.8364 22.0101 54.8364 21.9198C54.8364 21.8294 54.862 21.752 54.9258 21.6874C54.9896 21.6229 55.0534 21.597 55.1428 21.597H56.1895C56.2788 21.597 56.3426 21.6229 56.4065 21.6874C56.4703 21.752 56.4958 21.8294 56.4958 21.9198C56.4958 22.0101 56.4703 22.0876 56.4065 22.1521C56.3426 22.2167 56.2788 22.2425 56.1895 22.2425H56.0235V26.0894H56.1895Z" fill="#010202"/>
<path d="M5.82072 26.2056C4.88891 26.2056 4.12305 25.4311 4.12305 24.4887V10.4823C4.12305 9.53988 4.88891 8.76533 5.82072 8.76533C6.75253 8.76533 7.5184 9.53988 7.5184 10.4823V24.4887C7.5184 25.444 6.75253 26.2056 5.82072 26.2056Z" fill="#E94D25"/>
<path d="M1.69767 24.1789C0.765868 24.1789 0 23.4043 0 22.462V12.5219C0 11.5795 0.765868 10.805 1.69767 10.805C2.62948 10.805 3.39535 11.5795 3.39535 12.5219V22.462C3.39535 23.4043 2.62948 24.1789 1.69767 24.1789Z" fill="#E94D25"/>
<path d="M9.94328 28C9.01147 28 8.24561 27.2255 8.24561 26.2831V8.70078C8.24561 7.75841 9.01147 6.98386 9.94328 6.98386C10.8751 6.98386 11.641 7.75841 11.641 8.70078V26.296C11.641 27.2255 10.8751 28 9.94328 28Z" fill="#E94D25"/>
<path d="M67.1796 26.1282C68.1114 26.1282 68.8773 25.3536 68.8773 24.4113V10.4048C68.8773 9.46243 68.1114 8.68788 67.1796 8.68788C66.2478 8.68788 65.4819 9.46243 65.4819 10.4048V24.4113C65.4947 25.3665 66.2478 26.1282 67.1796 26.1282Z" fill="#E94D25"/>
<path d="M71.3149 24.1014C72.2467 24.1014 73.0125 23.3269 73.0125 22.3845V12.4444C73.0125 11.5021 72.2467 10.7275 71.3149 10.7275C70.3831 10.7275 69.6172 11.5021 69.6172 12.4444V22.3845C69.6172 23.3269 70.3831 24.1014 71.3149 24.1014Z" fill="#E94D25"/>
<path d="M63.0566 27.9225C63.9884 27.9225 64.7542 27.148 64.7542 26.2056V8.61042C64.7542 7.66805 63.9884 6.8935 63.0566 6.8935C62.1248 6.8935 61.3589 7.66805 61.3589 8.61042V26.2056C61.3589 27.148 62.1248 27.9225 63.0566 27.9225Z" fill="#E94D25"/>
<path d="M62.7883 16.2268H10.6582V18.6925H62.7883V16.2268Z" fill="#E94D25"/>
</g>
<defs>
<clipPath id="clip0_382_678">
<rect width="73" height="28" fill="white"/>
</clipPath>
</defs>
</svg>
