<svg width="53" height="48" viewBox="0 0 53 48" fill="none" xmlns="http://www.w3.org/2000/svg">
<path d="M52.285 20.4316L27.3844 0.341419C26.8198 -0.113806 25.9804 -0.113806 25.4156 0.341419L0.515013 20.4316C0.194129 20.6913 0 21.0781 0 21.4801V46.6099C0 47.3776 0.671356 48 1.49945 48C3.63348 48 49.7361 48 51.3005 48C52.1288 48 52.8 47.3776 52.8 46.6099V21.4801C52.8 21.0824 52.6095 20.6942 52.285 20.4316ZM26.4 3.23292L47.2934 20.0902C45.8149 20.0902 6.99825 20.0902 5.5066 20.0902L26.4 3.23292ZM6.17395 45.2197H2.99891V22.8703H6.17395V45.2197ZM43.6271 45.2197H9.17286V42.974H43.6271V45.2197ZM43.6271 40.1937H9.17286V37.9481H43.6271V40.1937ZM43.6271 35.1679H9.17286V32.9221H43.6271V35.1679ZM43.6271 30.1418H9.17286V27.8961H43.6271V30.1418ZM43.6271 25.116H9.17286V22.8705H43.6271V25.116ZM49.8011 45.2197H46.626V22.8703H49.8011V45.2197Z" fill="#333333"/>
<path d="M29.3989 13.1196H23.4011C22.5728 13.1196 21.9016 13.742 21.9016 14.5097C21.9016 15.2774 22.5728 15.8999 23.4011 15.8999H29.3989C30.2272 15.8999 30.8983 15.2774 30.8983 14.5097C30.8983 13.742 30.2272 13.1196 29.3989 13.1196Z" fill="#333333"/>
</svg>
