<svg width="24" height="24" viewBox="0 0 24 24" fill="none" xmlns="http://www.w3.org/2000/svg">
<path fill-rule="evenodd" clip-rule="evenodd" d="M12 24C18.6274 24 24 18.6274 24 12C24 5.37258 18.6274 0 12 0C5.37258 0 0 5.37258 0 12C0 18.6274 5.37258 24 12 24ZM17.4548 5.54549H8.45485C7.90257 5.54549 7.45485 5.9932 7.45485 6.54549C7.45485 7.09777 7.90257 7.54549 8.45485 7.54549L15.0406 7.54549L5.83865 16.7475L7.25287 18.1617L16.4548 8.9597V15.5455C16.4548 16.0978 16.9026 16.5455 17.4548 16.5455C18.0071 16.5455 18.4548 16.0978 18.4548 15.5455V6.54549C18.4548 5.9932 18.0071 5.54549 17.4548 5.54549Z" fill="white"/>
</svg>
