<svg width="46" height="46" viewBox="0 0 46 46" fill="none" xmlns="http://www.w3.org/2000/svg">
<path fill-rule="evenodd" clip-rule="evenodd" d="M46 23C46 35.7025 35.7025 46 23 46C10.2975 46 0 35.7025 0 23C0 10.2975 10.2975 0 23 0C35.7025 0 46 10.2975 46 23ZM33.4545 11.5455L24.4545 11.5455C23.9022 11.5455 23.4545 11.9932 23.4545 12.5455C23.4545 13.0978 23.9022 13.5455 24.4545 13.5455H31.0403L11.8383 32.7475L13.2525 34.1617L32.4545 14.9597V21.5455C32.4545 22.0978 32.9022 22.5455 33.4545 22.5455C34.0068 22.5455 34.4545 22.0978 34.4545 21.5455V12.5455C34.4545 11.9932 34.0068 11.5455 33.4545 11.5455Z" fill="white"/>
</svg>
