<svg width="34" height="34" viewBox="0 0 34 34" fill="none" xmlns="http://www.w3.org/2000/svg">
<g clip-path="url(#clip0_534_430)">
<path d="M0 18.0628C0 17.3561 0 16.6495 0 15.9428C0.102616 15.2133 0.182428 14.4725 0.330651 13.7544C2.10932 4.55626 11.1509 -1.50743 20.3065 0.327636C29.4849 2.1627 35.448 11.0531 33.6922 20.2512C32.3924 27.0672 26.7827 32.561 19.9417 33.7349C19.326 33.8375 18.6989 33.9059 18.0718 33.9971C17.3649 33.9971 16.6579 33.9971 15.951 33.9971C15.8826 33.9743 15.8028 33.9515 15.7344 33.9401C12.8042 33.7121 10.1019 32.8003 7.67337 31.159C3.65996 28.4463 1.17438 24.6964 0.273642 19.9207C0.148223 19.3052 0.0912139 18.6783 0 18.0628ZM16.008 14.0051C16.008 14.9284 16.0194 15.8402 15.9966 16.7634C15.9852 17.2194 16.1449 17.5613 16.4641 17.8804C18.3568 19.7611 20.2381 21.6531 22.1308 23.5338C22.222 23.625 22.3018 23.7048 22.4044 23.7732C23.0201 24.2177 23.8753 23.8529 23.9779 23.1007C24.0349 22.7018 23.841 22.4054 23.5674 22.1319C21.7887 20.3538 20.0101 18.5757 18.2314 16.809C18.0718 16.6495 18.0034 16.4899 18.0034 16.2619C18.0148 14.5522 18.0148 12.8312 18.0034 11.1215C18.0034 10.4718 17.5929 10.0273 17.0114 10.0273C16.4299 10.0273 16.0194 10.4718 16.008 11.1215C16.008 12.0789 16.008 13.0363 16.008 14.0051ZM18.0034 6.06079C18.0034 5.71885 18.0148 5.37692 18.0034 5.03498C17.9806 4.47648 17.5473 4.04336 17.0114 4.04336C16.4641 4.04336 16.0309 4.47648 16.0195 5.03498C16.008 5.69606 16.008 6.35714 16.0195 7.01822C16.0309 7.58811 16.4527 8.00984 17 8.02123C17.5587 8.03263 17.992 7.59951 18.0034 7.00682C18.0034 6.69907 18.0034 6.37993 18.0034 6.06079ZM16.008 27.922C16.008 28.2639 15.9966 28.6059 16.008 28.9478C16.0194 29.5177 16.4527 29.9394 16.9886 29.9508C17.5245 29.9508 17.9805 29.5291 17.992 28.9706C18.0034 28.2981 18.0034 27.6257 17.992 26.9532C17.9805 26.3947 17.5359 25.973 16.9886 25.973C16.4413 25.973 16.0194 26.4061 16.008 26.976C16.008 27.2837 16.008 27.6029 16.008 27.922ZM6.04292 17.9944C6.38498 17.9944 6.72703 18.0058 7.06908 17.9944C7.61636 17.9716 8.02683 17.5385 8.03823 17.0142C8.04963 16.4671 7.61636 16.0226 7.05768 16.0112C6.38498 15.9998 5.71227 15.9998 5.03957 16.0112C4.48089 16.0226 4.04762 16.4671 4.05902 17.0142C4.05902 17.5499 4.49229 17.983 5.05097 18.0058C5.38162 18.0058 5.71227 17.9944 6.04292 17.9944ZM27.9457 17.9944C28.2877 17.9944 28.6298 18.0058 28.9718 17.9944C29.5305 17.9716 29.9638 17.5385 29.9524 16.9914C29.9524 16.4443 29.5191 16.0112 28.9604 15.9998C28.2991 15.9884 27.6378 15.9884 26.9765 15.9998C26.4178 16.0112 25.9846 16.4443 25.9732 16.98C25.9618 17.5385 26.4064 17.9716 26.9879 17.983C27.3072 17.9944 27.6264 17.9944 27.9457 17.9944ZM26.452 25.4487C26.452 24.9016 26.0074 24.457 25.4601 24.457C24.9242 24.457 24.4681 24.913 24.4681 25.4487C24.4681 25.9958 24.9128 26.4403 25.4601 26.4403C26.0188 26.4403 26.452 26.0072 26.452 25.4487ZM25.4601 7.55392C24.9128 7.55392 24.4567 7.99844 24.4567 8.53414C24.4567 9.06984 24.9128 9.52576 25.4487 9.53716C25.996 9.53716 26.4406 9.09264 26.4406 8.54554C26.452 7.98704 26.0188 7.55392 25.4601 7.55392ZM7.55936 25.4145C7.54795 25.973 7.95842 26.4175 8.5171 26.4289C9.07579 26.4403 9.52046 26.0299 9.54326 25.4715C9.56606 24.9357 9.1214 24.4684 8.57411 24.4456C8.03823 24.4342 7.58216 24.8674 7.55936 25.4145ZM7.55936 8.53414C7.55936 9.09264 7.99262 9.53716 8.53991 9.53716C9.07579 9.54855 9.54326 9.09264 9.54326 8.54554C9.55466 7.99844 9.10999 7.55392 8.56271 7.54252C8.00402 7.55392 7.57076 7.97564 7.55936 8.53414Z" fill="url(#paint0_linear_534_430)"/>
</g>
<defs>
<linearGradient id="paint0_linear_534_430" x1="0" y1="16.9973" x2="33.9968" y2="16.9973" gradientUnits="userSpaceOnUse">
<stop offset="1.1e-07" stop-color="#FF1501"/>
<stop offset="1" stop-color="#FF9D01"/>
</linearGradient>
<clipPath id="clip0_534_430">
<rect width="34" height="34" fill="white"/>
</clipPath>
</defs>
</svg>
